{
    "accessors" : [
        {
            "bufferView" : 0,
            "componentType" : 5126,
            "count" : 2049,
            "max" : [
                18.9727840423584,
                23.194499969482422,
                24.129074096679688
            ],
            "min" : [
                -19.361616134643555,
                -17.925899505615234,
                -27.981725692749023
            ],
            "type" : "VEC3"
        },
        {
            "bufferView" : 1,
            "componentType" : 5126,
            "count" : 2049,
            "type" : "VEC3"
        },
        {
            "bufferView" : 2,
            "componentType" : 5126,
            "count" : 2049,
            "type" : "VEC2"
        },
        {
            "bufferView" : 3,
            "componentType" : 5123,
            "count" : 4887,
            "type" : "SCALAR"
        },
        {
            "bufferView" : 4,
            "componentType" : 5126,
            "count" : 16,
            "max" : [
                -2.507326602935791,
                16.63549041748047,
                -3.322157144546509
            ],
            "min" : [
                -9.276224136352539,
                10.104653358459473,
                -9.923555374145508
            ],
            "type" : "VEC3"
        },
        {
            "bufferView" : 5,
            "componentType" : 5126,
            "count" : 16,
            "type" : "VEC3"
        },
        {
            "bufferView" : 6,
            "componentType" : 5126,
            "count" : 16,
            "type" : "VEC2"
        },
        {
            "bufferView" : 7,
            "componentType" : 5121,
            "count" : 48,
            "type" : "SCALAR"
        },
        {
            "bufferView" : 8,
            "componentType" : 5126,
            "count" : 19,
            "max" : [
                8.851466178894043,
                16.58905601501465,
                -3.1600520610809326
            ],
            "min" : [
                2.7847118377685547,
                10.151434898376465,
                -9.703679084777832
            ],
            "type" : "VEC3"
        },
        {
            "bufferView" : 9,
            "componentType" : 5126,
            "count" : 19,
            "type" : "VEC3"
        },
        {
            "bufferView" : 10,
            "componentType" : 5126,
            "count" : 19,
            "type" : "VEC2"
        },
        {
            "bufferView" : 11,
            "componentType" : 5121,
            "count" : 60,
            "type" : "SCALAR"
        }
    ],
    "asset" : {
        "generator" : "Khronos Blender glTF 2.0 I/O",
        "version" : "2.0"
    },
    "bufferViews" : [
        {
            "buffer" : 0,
            "byteLength" : 24588,
            "byteOffset" : 0
        },
        {
            "buffer" : 0,
            "byteLength" : 24588,
            "byteOffset" : 24588
        },
        {
            "buffer" : 0,
            "byteLength" : 16392,
            "byteOffset" : 49176
        },
        {
            "buffer" : 0,
            "byteLength" : 9774,
            "byteOffset" : 65568
        },
        {
            "buffer" : 0,
            "byteLength" : 192,
            "byteOffset" : 75344
        },
        {
            "buffer" : 0,
            "byteLength" : 192,
            "byteOffset" : 75536
        },
        {
            "buffer" : 0,
            "byteLength" : 128,
            "byteOffset" : 75728
        },
        {
            "buffer" : 0,
            "byteLength" : 48,
            "byteOffset" : 75856
        },
        {
            "buffer" : 0,
            "byteLength" : 228,
            "byteOffset" : 75904
        },
        {
            "buffer" : 0,
            "byteLength" : 228,
            "byteOffset" : 76132
        },
        {
            "buffer" : 0,
            "byteLength" : 152,
            "byteOffset" : 76360
        },
        {
            "buffer" : 0,
            "byteLength" : 60,
            "byteOffset" : 76512
        }
    ],
    "buffers" : [
        {
            "byteLength" : 76572,
            "uri" : "data:application/octet-stream;base64,"
        }
    ],
    "extensions" : {},
    "materials" : [
        {
            "name" : "06___Default",
            "pbrMetallicRoughness" : {
                "baseColorFactor" : [
                    0,
                    0,
                    0,
                    1
                ],
                "metallicFactor" : 0.3738095164299011,
                "roughnessFactor" : 0.23571428656578064
            }
        },
        {
            "name" : "Standardmaterial",
            "pbrMetallicRoughness" : {
                "baseColorFactor" : [
                    0.800000011920929,
                    0.800000011920929,
                    0.800000011920929,
                    1
                ],
                "metallicFactor" : 0,
                "roughnessFactor" : 0
            }
        }
    ],
    "meshes" : [
        {
            "name" : "Head",
            "primitives" : [
                {
                    "attributes" : {
                        "NORMAL" : 1,
                        "POSITION" : 0,
                        "TEXCOORD_0" : 2
                    },
                    "indices" : 3,
                    "material" : 0
                }
            ]
        },
        {
            "name" : "RightEye",
            "primitives" : [
                {
                    "attributes" : {
                        "NORMAL" : 5,
                        "POSITION" : 4,
                        "TEXCOORD_0" : 6
                    },
                    "indices" : 7,
                    "material" : 1
                }
            ]
        },
        {
            "name" : "LeftEye",
            "primitives" : [
                {
                    "attributes" : {
                        "NORMAL" : 9,
                        "POSITION" : 8,
                        "TEXCOORD_0" : 10
                    },
                    "indices" : 11,
                    "material" : 1
                }
            ]
        }
    ],
    "nodes" : [
        {
            "mesh" : 0,
            "name" : "Head",
            "rotation" : [
                8.429368136830817e-08,
                0.7071066498756409,
                -0.70710688829422,
                -1.461109491174284e-07
            ]
        },
        {
            "mesh" : 1,
            "name" : "RightEye",
            "rotation" : [
                8.429368136830817e-08,
                0.7071066498756409,
                -0.70710688829422,
                -1.461109491174284e-07
            ]
        },
        {
            "mesh" : 2,
            "name" : "LeftEye",
            "rotation" : [
                8.429368136830817e-08,
                0.7071066498756409,
                -0.70710688829422,
                -1.461109491174284e-07
            ]
        }
    ],
    "scene" : 0,
    "scenes" : [
        {
            "name" : "Scene",
            "nodes" : [
                0,
                1,
                2
            ]
        }
    ]
}
